<svg width="48" height="48" viewBox="0 0 48 48" fill="none" xmlns="http://www.w3.org/2000/svg">
<path d="M40.5605 38.4177L16.8729 44.7562C13.6888 45.6192 10.4154 43.7444 9.5524 40.5603L3.2139 16.8727C2.35091 13.6886 4.25543 10.4152 7.43956 9.55221L31.1271 3.21371C34.3112 2.35073 37.5846 4.25525 38.4476 7.43938L44.7861 31.1269C45.6194 34.311 43.7446 37.5845 40.5605 38.4177Z" fill="#E1E4F4"/>
<path d="M41.3042 15.325L39.8758 16.6641C39.8758 16.6641 31.9006 11.6945 31.6328 11.516C31.365 11.3672 29.1331 15.1762 28.7165 15.4143L4.16595 29.5792L23.4195 33.1799L41.6911 23.3597C42.3755 22.9431 41.3042 15.325 41.3042 15.325Z" fill="#2B2E3A"/>
<path d="M26.2763 15.8906L25.0562 15.474C24.7884 15.3847 24.5206 15.2061 24.342 14.9978L23.8957 14.4622C23.6576 14.1646 23.1815 14.1944 22.9732 14.5514L22.5565 15.2656C22.4673 15.4144 22.4077 15.593 22.4077 15.8013V17.5273L21.1281 19.164L17.0513 21.5149C16.9025 21.6041 16.8132 21.7529 16.8132 21.9315V22.4969C16.8132 22.6754 16.9025 22.8242 17.0513 22.9135L20.8306 25.0859C21.0091 25.2049 21.2472 25.2049 21.4257 25.0859L25.7407 22.6457C25.8597 22.5862 25.9192 22.4671 25.9192 22.3183V21.9315L27.2881 17.9439C27.5559 17.1107 27.1095 16.1882 26.2763 15.8906Z" fill="#57617F"/>
<path d="M32.3172 20.3247L31.0971 19.908C30.8293 19.8188 30.5615 19.6402 30.3829 19.4319L29.9365 18.8963C29.6985 18.5987 29.2224 18.6284 29.014 18.9855L28.7462 19.4617C28.5677 19.789 28.4486 20.1461 28.4486 20.5032V22.497C28.4486 22.7053 28.3296 22.9136 28.1511 23.0326L27.1988 23.5981L23.1219 25.949C22.9731 26.0382 22.8839 26.187 22.8839 26.3656V26.931C22.8839 27.1095 22.9731 27.2583 23.1219 27.3476L26.9012 29.5199C27.0798 29.639 27.3178 29.639 27.4964 29.5199L31.8113 27.0798C31.9303 27.0203 31.9899 26.9012 31.9899 26.7524V26.3656L33.3587 22.378C33.6266 21.515 33.1802 20.6222 32.3172 20.3247Z" fill="#57617F"/>
<path d="M14.9979 16.7236L14.1945 20.4732L17.2 18.5984L17.3191 20.2053L19.8188 20.8898L18.0333 22.1694L19.0451 25.175L10.8318 20.8898L12.2304 18.7472L14.9979 16.7236Z" fill="#FFD385"/>
<path d="M22.9434 18.0928L21.1877 20.0568L23.6874 19.9378L23.5981 20.89L25.2051 21.1876L25.6217 19.2533L22.9434 18.0928Z" fill="#FFD385"/>
<path d="M5.38612 26.1572C5.29684 26.3655 4.88023 26.1275 4.52313 27.5856C3.95772 28.1213 3.77917 28.9247 3.77917 29.3414V32.2874C3.77917 32.9123 3.98748 33.4777 4.4041 33.9539C4.58265 34.1622 5.47539 33.6861 5.74322 33.8348C8.06436 35.174 10.564 36.3941 10.564 36.3941C11.9032 37.1678 12.6174 38.3581 14.1648 38.3581L14.5814 37.5546L16.5752 29.1628L5.38612 26.1572Z" fill="#F97A7A"/>
<path d="M39.8759 12.3195L30.7699 7.11184C29.8771 6.60595 28.7463 6.60595 27.8536 7.11184L19.6701 12.7957C19.2237 13.0932 18.7178 13.3015 18.1821 13.3908L16.5454 13.6289L15.98 14.0455C15.7122 14.2538 15.4741 14.5216 15.3254 14.849L14.6707 16.2774L11.7544 18.7473L10.8319 20.2352L6.13007 23.8657C5.86224 24.074 6.21934 24.7287 6.07055 24.9965C5.83248 25.3834 5.1778 25.7107 5.1778 26.1869L5.11829 26.6332C5.11829 26.9308 6.21934 27.7938 6.57644 27.0796C6.8145 26.6035 9.90936 27.7045 10.3557 27.9723L11.6949 29.5495C12.4686 29.9959 11.189 31.7219 12.0817 31.6028L15.5932 31.335C16.2479 31.2755 17.4084 31.6921 17.9738 31.3648C20.2355 30.1447 23.0327 27.3177 23.2113 27.3772L26.0681 19.64C30.5616 15.831 35.3824 15.1168 39.8759 12.3195ZM24.8777 20.265L22.6161 25.919C22.4673 26.2761 22.14 26.5142 21.7531 26.5142L11.5461 20.6518C11.4865 20.384 11.5461 20.0864 11.7544 19.8484L12.2305 18.9854L14.998 16.7237L15.8312 15.0275C16.0693 14.7597 16.4562 14.7299 16.724 14.968C17.1108 15.3251 17.1406 16.2476 17.8548 16.7833C18.3607 17.1404 19.5213 17.1106 20.0867 17.4082C21.5151 18.2117 23.5386 19.0746 24.5504 19.4615C24.848 19.5805 24.9968 19.9376 24.8777 20.265Z" fill="#BFC6F2"/>
<path d="M42.0779 13.9263C41.6911 13.3906 41.1554 13.0038 40.59 12.6764L39.8758 12.3193L38.4772 13.1823C42.2267 17.4377 36.2156 25.8296 35.5311 26.2164L33.4481 27.3175C33.8052 26.9306 34.0135 26.4545 34.0135 25.9188L34.1325 20.6219C34.1325 20.2053 34.1028 19.7886 34.0135 19.372L33.1505 15.5035C33.0315 14.9976 32.466 14.7298 31.9899 14.9976L27.7643 17.4377C26.8715 17.9436 26.1871 18.7769 25.8597 19.7291L24.4908 23.6572C24.3718 23.9846 24.2528 24.3119 24.0742 24.6095C23.9552 24.8475 23.8659 25.1154 23.8064 25.3832C23.122 26.8116 22.0209 27.9722 20.652 28.7756L17.6762 30.4718C16.9323 30.8885 16.099 31.186 15.2658 31.2753C15.2658 31.2753 13.7779 31.8705 12.528 33.0608L11.7841 35.8283C11.7841 37.1972 12.8851 38.2983 14.254 38.2983L16.9323 36.8401C17.3489 36.2747 17.7952 33.656 20.5628 33.1501L24.6396 34.1619L34.5789 28.4185L40.5305 24.2524C41.5423 23.6572 42.9112 23.0025 43.1195 21.842C43.179 21.6039 43.2088 21.3361 43.2088 21.098V17.2294C43.2088 16.0986 42.8219 14.9083 42.0779 13.9263ZM25.7407 24.1631L26.812 20.5028C27.1393 19.4315 27.8535 18.509 28.8355 17.9436L32.466 15.8308L33.2398 19.2232C33.3588 19.7886 33.1207 20.3541 32.6446 20.6814L26.4251 24.669C26.068 24.8773 25.6217 24.55 25.7407 24.1631Z" fill="#8698BF"/>
<path d="M14.7003 23.479C14.7003 23.479 14.7301 23.479 14.7301 23.5088C14.7301 23.479 14.7003 23.479 14.7003 23.479Z" fill="#B3B3B3"/>
<path d="M42.5243 21.0091C42.5243 21.0091 41.4827 20.4139 41.4232 20.4734C41.3637 20.5329 39.727 20.8305 39.727 20.8305L37.4654 22.7946L35.5311 27.9725L36.7512 27.288L38.1796 28.0915L42.3755 23.6575L42.4648 23.2409L42.6433 22.0506L42.5243 21.0091Z" fill="#2B2E3A"/>
<path d="M40.7091 22.0205C40.4115 22.0205 40.1139 22.1098 39.8758 22.2586C38.3582 23.1216 37.3464 24.7583 37.3464 26.633C37.3464 27.5555 38.0903 28.3292 39.0426 28.3292C39.3402 28.3292 39.6378 28.24 39.9056 28.0912C41.3935 27.2282 42.435 25.5915 42.435 23.7167C42.4053 22.7942 41.6316 22.0205 40.7091 22.0205Z" fill="#57617F"/>
<path d="M40.3817 20.2651C39.1318 20.6519 38.1498 21.3959 37.3761 22.2589C37.1083 22.5564 36.1262 23.9848 35.9477 24.3717C35.5311 25.1752 35.2633 25.9191 35.0847 26.5738C34.7574 27.6451 34.6383 28.4783 34.6383 28.4783L35.9477 27.7344C35.9477 27.7344 37.0785 21.991 40.3817 20.9793C41.0066 20.8007 41.2149 20.8305 41.5422 20.9197C41.8696 21.0388 42.316 21.2471 42.435 21.5744C42.6731 22.1993 42.554 23.0326 42.4052 23.6277C42.7921 23.1219 43.0302 22.5564 43.1492 21.9613C43.0599 21.5149 42.9111 21.0685 42.6433 20.7114C42.4647 20.4734 41.0066 20.0568 40.3817 20.2651Z" fill="#BFC6F2"/>
<path d="M4.4041 29.0436L4.79095 28.8651C4.79095 27.764 5.11829 26.782 5.11829 26.782L6.57645 25.4727L5.17781 26.1571C5.08854 26.3654 4.90999 26.1273 4.52313 27.5855C3.95772 28.1211 3.77917 28.9246 3.77917 29.3412V30.3232C3.77917 31.216 3.77917 31.7814 3.77917 32.2575C3.77917 32.2575 4.07676 32.317 4.07676 32.1385C4.19579 30.9482 4.4041 29.0436 4.4041 29.0436Z" fill="#8698BF"/>
<path d="M13.4506 34.9656C13.3018 35.2335 14.135 35.8286 14.135 36.275L12.2305 36.1857L13.3018 38.2688L10.6236 37.019L11.7246 33.9836L15.8015 32.6147C15.8313 32.6147 13.5994 34.6978 13.4506 34.9656Z" fill="#F97A7A"/>
<path d="M16.6346 32.1684C15.5633 32.585 13.629 33.1801 11.7543 32.8528L10.3854 31.3946L6.75487 31.0971L4.79083 28.8652C4.79083 28.8652 4.6718 27.8237 4.79083 26.6631C4.79083 26.6631 3.9576 29.3413 4.76107 29.9365C4.76107 30.4721 4.85035 31.0673 5.11817 31.2459C5.2372 31.3351 5.53479 31.4839 5.9514 31.6922L6.57632 32.6445L9.7307 33.6265C9.79021 33.6563 9.81997 33.686 9.87949 33.7158C10.7127 34.1324 11.3972 34.4895 11.6352 34.6383C11.9328 34.8168 12.0221 34.5788 12.0221 34.2217C12.4982 34.2217 13.3612 34.1919 14.6408 33.9538C14.9086 33.8943 15.6228 33.3884 16.7834 32.4362C16.8727 32.3171 16.7536 32.1386 16.6346 32.1684Z" fill="#2B2E3A"/>
<path d="M4.67189 32.0791L11.7543 36.156C12.2305 37.2868 12.6768 37.9415 12.6768 37.9415C12.1114 38.12 11.4568 37.2868 10.9806 37.138C10.5045 36.9892 5.0885 34.8169 5.0885 34.8169C4.58261 34.4598 4.13624 33.7456 4.04697 33.448C4.07672 33.0611 4.67189 32.0791 4.67189 32.0791Z" fill="#EF3F54"/>
<path d="M11.5757 20.8901C11.1293 21.4258 10.802 22.021 10.4151 22.5864C10.058 23.1518 9.67118 23.7469 9.28432 24.3123C8.86771 24.8777 8.45109 25.4431 7.97496 25.949C7.91544 26.0085 7.85593 26.0681 7.79641 26.1276C7.73689 26.1871 7.67738 26.2466 7.5881 26.3359C7.43931 26.4847 7.17149 26.574 6.96318 26.5144C6.75487 26.4847 6.60608 26.3359 6.48705 26.3061C6.45729 26.3061 6.45729 26.2764 6.45729 26.3061C6.42753 26.3359 6.42753 26.3656 6.42753 26.3954C6.39777 26.4847 6.39777 26.574 6.39777 26.6632C6.36802 26.574 6.33826 26.4847 6.33826 26.3954C6.33826 26.3359 6.33826 26.3061 6.36802 26.2466C6.39777 26.1871 6.48705 26.1276 6.54656 26.1276C6.75487 26.1573 6.90366 26.2169 7.05245 26.2169C7.17149 26.2169 7.26076 26.1573 7.35004 26.0383C7.37979 25.9788 7.43931 25.9193 7.46907 25.83C7.49883 25.7705 7.55834 25.6812 7.61786 25.6217C7.97496 25.0563 8.36182 24.4611 8.74867 23.8957C9.13553 23.3303 9.55214 22.7649 10.0283 22.259C10.2663 21.9912 10.5044 21.7531 10.7722 21.5151C10.9508 21.277 11.2186 21.0389 11.5757 20.8901Z" fill="#8698BF"/>
<path d="M20.7413 26.6035C20.2652 26.9606 19.7593 27.288 19.2236 27.5558C18.688 27.8236 18.1523 28.0617 17.5869 28.27C17.0215 28.4783 16.4561 28.6568 15.8907 28.8354L15.0575 29.0734C14.7896 29.1627 14.4921 29.252 14.2838 29.3413L14.373 29.252C14.135 29.6091 13.8671 29.9364 13.5993 30.2638L13.51 30.3531L13.4208 30.3233C13.0042 30.234 12.6173 30.1447 12.2007 30.0257C12.6173 29.9662 13.0339 29.9662 13.4505 29.9662L13.272 30.0555C13.4505 29.6686 13.6588 29.3115 13.8671 28.9247L13.8969 28.8651L13.9564 28.8354C14.254 28.6568 14.5218 28.5676 14.8194 28.4485C15.0872 28.3295 15.3848 28.2402 15.6526 28.1509C16.218 27.9724 16.7834 27.7938 17.3191 27.6451L18.9856 27.1392L20.7413 26.6035Z" fill="#8698BF"/>
<path d="M24.1337 34.549L24.8479 32.8825L23.9849 30.9185H21.9018L20.3842 31.9898L18.6284 33.8348L17.6762 35.4417C17.6762 35.4417 18.3309 34.9953 19.0748 34.5787C21.3662 33.3289 24.1337 34.549 24.1337 34.549Z" fill="#2B2E3A"/>
<path d="M22.259 33.6263C21.9317 33.4477 21.4853 33.5965 21.1282 33.9536L19.2534 32.8525L18.5095 34.1917L20.4438 35.3225C20.3843 35.7688 20.4735 36.1259 20.7711 36.3045L21.1282 36.5128L22.6161 33.8346C22.6161 33.8346 22.2888 33.656 22.259 33.6263Z" fill="#57617F"/>
<path d="M22.616 33.8346C22.1399 33.5966 21.4554 33.9834 21.0686 34.7274C20.6817 35.4713 20.652 36.2748 21.1281 36.5129C21.6042 36.7509 22.3779 36.3641 22.7648 35.6201C23.1517 34.8762 23.0921 34.0727 22.616 33.8346Z" fill="#8698BF"/>
<path d="M17.4976 35.7098C17.4976 35.7098 18.1226 35.2336 18.5392 34.1921C18.7177 33.7457 19.0451 34.1921 19.3427 33.716C19.9973 32.6447 20.9496 31.6329 22.259 31.246C25.5919 30.2343 24.104 34.5492 24.104 34.5492L25.086 33.9838C25.086 33.9838 25.7109 29.4308 22.2887 30.5021C20.4437 31.0972 19.3427 31.6329 18.5094 32.853C18.3606 33.0613 18.1821 33.8945 18.1821 33.8945L16.5156 34.9361C16.5156 34.9361 16.7239 35.9776 16.6644 36.2157C16.5454 36.6025 16.9025 36.9001 16.9025 36.9001C17.4381 36.5132 17.3489 36.2157 17.4976 35.7098Z" fill="#BFC6F2"/>
</svg>
