<svg width="264" height="146" viewBox="0 0 264 146" fill="none" xmlns="http://www.w3.org/2000/svg">
<g clip-path="url(#clip0)">
<path d="M90.5174 126.875H74.5123V32.2323L90.5174 20.8438V126.875Z" fill="url(#paint0_linear)"/>
<path d="M151.384 20.8438H90.5173V126.875H151.384V20.8438Z" fill="url(#paint1_linear)"/>
<path opacity="0.8" d="M109.518 43.3067L104.157 37.9659L109.518 32.5465L114.88 37.9659L109.518 43.3067Z" fill="url(#paint2_linear)"/>
<path opacity="0.8" d="M132.304 43.3067L126.943 37.9659L132.304 32.5465L137.744 37.9659L132.304 43.3067Z" fill="url(#paint3_linear)"/>
<path opacity="0.8" d="M109.518 66.0053L104.157 60.6644L109.518 55.3236L114.88 60.6644L109.518 66.0053Z" fill="url(#paint4_linear)"/>
<path opacity="0.8" d="M132.304 66.0053L126.943 60.6644L132.304 55.3236L137.744 60.6644L132.304 66.0053Z" fill="url(#paint5_linear)"/>
<path d="M126.312 115.172H207.677C214.143 115.172 219.425 120.435 219.425 126.875H126.312V115.172Z" fill="url(#paint6_linear)"/>
<path d="M211.138 90.5052H207.018V126.875H211.138V90.5052Z" fill="url(#paint7_linear)"/>
<path d="M225.841 57.3904C227.617 53.0034 227.759 47.838 225.344 42.5312C222.574 36.3752 216.252 32.625 209.504 32.625C199.702 32.625 191.321 40.1254 190.895 49.89C190.681 55.4799 193.025 60.5037 196.79 63.9709C189.687 68.1456 184.928 75.8583 184.928 84.7031C184.928 98.0056 195.725 108.761 209.078 108.761H209.149C222.503 108.761 233.299 98.0056 233.299 84.7031C233.299 78.8301 231.168 73.5233 227.688 69.3485C224.847 66.0229 224.207 61.3528 225.841 57.3904Z" fill="url(#paint8_linear)"/>
<path d="M80.5044 79.5144C81.2929 79.5144 82.0813 79.5144 82.8697 79.593V126.875H46.2079C45.0253 123.262 44.3945 119.492 44.3945 115.486C44.3945 95.6154 60.5573 79.5144 80.5044 79.5144Z" fill="url(#paint9_linear)"/>
<path opacity="0.16" d="M130.454 142.462C192.554 142.462 242.896 139.785 242.896 136.481C242.896 133.178 192.554 130.5 130.454 130.5C68.3543 130.5 18.0125 133.178 18.0125 136.481C18.0125 139.785 68.3543 142.462 130.454 142.462Z" fill="url(#paint10_radial)"/>
<path opacity="0.32" d="M130.727 139.744C175.795 139.744 212.329 138.04 212.329 135.937C212.329 133.835 175.795 132.131 130.727 132.131C85.6595 132.131 49.125 133.835 49.125 135.937C49.125 138.04 85.6595 139.744 130.727 139.744Z" fill="url(#paint11_radial)"/>
<g opacity="0.8">
<path opacity="0.75" d="M131 139.2C167.175 139.2 196.5 137.252 196.5 134.85C196.5 132.448 167.175 130.5 131 130.5C94.8254 130.5 65.5 132.448 65.5 134.85C65.5 137.252 94.8254 139.2 131 139.2Z" fill="url(#paint12_radial)"/>
<path opacity="0.75" d="M131 137.569C167.175 137.569 196.5 136.23 196.5 134.578C196.5 132.926 167.175 131.588 131 131.588C94.8254 131.588 65.5 132.926 65.5 134.578C65.5 136.23 94.8254 137.569 131 137.569Z" fill="url(#paint13_radial)"/>
<path opacity="0.8" d="M171.119 136.59C181.519 136.59 189.95 135.86 189.95 134.959C189.95 134.058 181.519 133.328 171.119 133.328C160.719 133.328 152.287 134.058 152.287 134.959C152.287 135.86 160.719 136.59 171.119 136.59Z" fill="url(#paint14_radial)"/>
<path opacity="0.8" d="M85.9688 137.025C97.2733 137.025 106.438 136.051 106.438 134.85C106.438 133.649 97.2733 132.675 85.9688 132.675C74.6642 132.675 65.5 133.649 65.5 134.85C65.5 136.051 74.6642 137.025 85.9688 137.025Z" fill="url(#paint15_radial)"/>
<path opacity="0.8" d="M128.544 136.59C141.506 136.59 152.015 135.86 152.015 134.959C152.015 134.058 141.506 133.328 128.544 133.328C115.581 133.328 105.073 134.058 105.073 134.959C105.073 135.86 115.581 136.59 128.544 136.59Z" fill="url(#paint16_radial)"/>
<path opacity="0.64" d="M165.224 136.046C175.323 136.046 183.509 135.559 183.509 134.959C183.509 134.358 175.323 133.871 165.224 133.871C155.125 133.871 146.938 134.358 146.938 134.959C146.938 135.559 155.125 136.046 165.224 136.046Z" fill="url(#paint17_radial)"/>
<path opacity="0.64" d="M87.4425 136.046C97.5413 136.046 105.728 135.559 105.728 134.959C105.728 134.358 97.5413 133.871 87.4425 133.871C77.3438 133.871 69.1571 134.358 69.1571 134.959C69.1571 135.559 77.3438 136.046 87.4425 136.046Z" fill="url(#paint18_radial)"/>
</g>
<path d="M171.392 100.05C158.102 84.2602 145.41 80.475 137.491 80.475H101.252L121.175 100.05H171.392Z" fill="url(#paint19_linear)"/>
<path d="M156.111 86.4083C160.937 89.407 166.117 93.7829 171.392 100.05H121.175C127.664 90.7569 139.326 89.0724 148.549 87.74C151.37 87.3324 153.964 86.9578 156.111 86.4083Z" fill="url(#paint20_linear)"/>
<path d="M101.744 80.4772C87.0604 80.4772 75.325 97.8749 75.325 97.8749L121.175 100.05C118.808 93.7606 110.937 80.4772 101.744 80.4772Z" fill="url(#paint21_linear)"/>
<path opacity="0.8" d="M108.33 99.4407C105.373 93.5484 99.6697 90.7796 94.5692 88.3035C92.311 87.2072 90.1709 86.1683 88.4397 84.941C80.8564 89.9096 75.7074 97.3165 75.3453 97.845C75.51 97.8633 75.6747 97.8814 75.8395 97.8994L108.33 99.4407Z" fill="url(#paint22_linear)"/>
<mask id="mask0" mask-type="alpha" maskUnits="userSpaceOnUse" x="65" y="97" width="132" height="34">
<path fill-rule="evenodd" clip-rule="evenodd" d="M121.175 100.05L171.392 100.05L196.5 107.663V126.15C196.5 128.552 194.545 130.5 192.133 130.5L139.735 130.5L121.175 130.5L75.3249 130.5C73.5247 130.5 69.8246 126.123 67.5143 123.144C66.1845 121.429 65.6487 119.247 65.9379 117.1C67.1913 107.794 68.502 100.05 68.502 100.05L75.325 97.875L121.175 100.05Z" fill="url(#paint23_linear)"/>
</mask>
<g mask="url(#mask0)">
<path d="M196.5 130.5V107.663L171.392 100.05H121.175V130.5H196.5Z" fill="url(#paint24_linear)"/>
<path d="M144.1 126.15C144.1 128.552 142.146 130.5 139.734 130.5C124.935 130.5 77.461 130.5 75.1904 130.5C72.4986 130.5 65.5 120.441 65.5 120.441C66.8459 109.724 68.461 100.05 68.461 100.05L75.1904 97.875L121.175 100.05L144.1 107.663V126.15Z" fill="url(#paint25_linear)"/>
<path opacity="0.4" fill-rule="evenodd" clip-rule="evenodd" d="M184.219 123.975C186.385 126.134 189.896 126.15 192.617 126.15H196.5V130.5H65.5V126.15H149.72C152.019 126.15 155.856 126.134 158.565 123.975C160.831 122.169 162.713 121.8 164.077 121.8H178.105C180.889 121.8 182.501 122.263 184.219 123.975Z" fill="url(#paint26_linear)"/>
<path d="M144.1 107.663L121.175 100.05L75.325 97.875L68.5021 100.05C72.5958 102.225 81.711 105.488 97.1583 105.488H122.267C132.092 105.488 132.092 109.838 142.179 109.838C144.37 109.838 144.1 109.838 144.1 109.838C144.1 107.663 144.1 109.838 144.1 107.663Z" fill="url(#paint27_linear)"/>
</g>
<path d="M154.471 107.662H186.129L181.763 109.837H158.838L154.471 107.662Z" fill="url(#paint28_linear)"/>
<path d="M196.5 107.662H181.763V109.837H196.5V107.662Z" fill="white"/>
<path d="M158.838 109.837H144.1C144.1 109.837 144.1 108.859 144.1 107.662H158.838V109.837Z" fill="white"/>
<path d="M144.1 109.837H141.908C140.707 109.837 139.733 108.864 139.733 107.662V107.662H144.1V109.837Z" fill="url(#paint29_radial)"/>
<rect x="139.733" y="107.662" width="4.36667" height="2.175" fill="url(#paint30_linear)"/>
<path opacity="0.24" d="M152.833 109.838L147.43 126.15H144.1V109.838H152.833Z" fill="url(#paint31_linear)"/>
<path opacity="0.24" d="M187.767 109.838L193.662 126.15H196.5V109.838H187.767Z" fill="url(#paint32_linear)"/>
<path opacity="0.64" d="M88.9708 126.15C88.9708 124.791 88.9708 122.574 88.9708 121.547C88.9708 113.876 85.3126 107.662 80.7253 107.662C76.1379 107.662 72.5958 113.876 72.5958 121.547C72.5958 122.574 72.5958 125.062 72.5959 126.15" fill="url(#paint33_linear)"/>
<path opacity="0.64" d="M133.729 126.15C133.729 125.062 133.729 122.574 133.729 121.547C133.729 113.876 130.071 107.662 125.484 107.662C120.896 107.662 117.354 113.876 117.354 121.547C117.354 122.574 117.354 125.062 117.354 126.15" fill="url(#paint34_linear)"/>
<path d="M87.6461 130.5C86.8798 130.5 86.0227 129.854 86.2417 129.141C86.8985 127.221 87.3333 125.063 87.3333 122.616C87.3333 115.541 84.8771 109.294 80.6942 109.294C76.4167 109.294 73.6875 115.596 73.6875 122.616C73.6875 129.69 76.8687 134.85 80.6004 134.85H87.3333C89.5229 134.85 91.4779 133.407 92.7917 130.5H87.6461Z" fill="#212240"/>
<path d="M132.405 130.5C131.638 130.5 130.781 129.854 131 129.141C131.657 127.221 132.092 125.063 132.092 122.616C132.092 115.541 129.636 109.294 125.453 109.294C121.175 109.294 118.446 115.596 118.446 122.616C118.446 129.69 121.627 134.85 125.359 134.85H132.092C134.281 134.85 136.236 133.407 137.55 130.5H132.405Z" fill="#212240"/>
<path d="M163.75 130.5C165.115 133.491 166.391 134.85 168.663 134.85H176.185C178.488 134.85 180.46 133.477 181.763 130.5H163.75Z" fill="#212240"/>
<path d="M121.175 122.072C121.175 126.705 123.022 130.5 125.269 130.5C127.515 130.5 129.363 126.705 129.363 122.072C129.363 117.439 127.515 113.644 125.269 113.644C123.022 113.644 121.175 117.439 121.175 122.072Z" fill="url(#paint35_linear)"/>
<path d="M76.4167 122.072C76.4167 126.705 78.2639 130.5 80.5105 130.5C82.7571 130.5 84.6042 126.705 84.6042 122.072C84.6042 117.439 82.7571 113.644 80.5105 113.644C78.2639 113.644 76.4167 117.439 76.4167 122.072Z" fill="url(#paint36_linear)"/>
<path d="M77.9361 122.128C77.9361 117.997 79.4048 114.537 81.3292 113.811C81.076 113.7 80.8228 113.644 80.5696 113.644C78.2906 113.644 76.4167 117.439 76.4167 122.072C76.4167 126.705 78.2906 130.5 80.5696 130.5C80.8228 130.5 81.076 130.444 81.3292 130.333C79.4048 129.719 77.9361 126.258 77.9361 122.128Z" fill="url(#paint37_linear)"/>
<path d="M122.694 122.128C122.694 117.997 124.163 114.537 126.088 113.811C125.834 113.7 125.581 113.644 125.328 113.644C123.085 113.644 121.175 117.439 121.175 122.072C121.175 126.705 123.049 130.5 125.328 130.5C125.581 130.5 125.834 130.444 126.088 130.333C124.163 129.719 122.694 126.258 122.694 122.128Z" fill="url(#paint38_linear)"/>
</g>
<defs>
<linearGradient id="paint0_linear" x1="56.6544" y1="25.0958" x2="111.971" y2="186.817" gradientUnits="userSpaceOnUse">
<stop offset="0.000402018" stop-color="#E0F2FF"/>
<stop offset="0.9994" stop-color="#B2DEFF"/>
</linearGradient>
<linearGradient id="paint1_linear" x1="75.0521" y1="-26.2812" x2="178.523" y2="205.607" gradientUnits="userSpaceOnUse">
<stop offset="0.406158" stop-color="#F1F9FF"/>
<stop offset="0.908497" stop-color="#B2DEFF"/>
</linearGradient>
<linearGradient id="paint2_linear" x1="75.4906" y1="94.7105" x2="100.281" y2="52.9913" gradientUnits="userSpaceOnUse">
<stop offset="0.000402018" stop-color="#E0F2FF"/>
<stop offset="0.9994" stop-color="#B2DEFF"/>
</linearGradient>
<linearGradient id="paint3_linear" x1="92.3248" y1="104.714" x2="117.115" y2="62.9946" gradientUnits="userSpaceOnUse">
<stop offset="0.000402018" stop-color="#E0F2FF"/>
<stop offset="0.9994" stop-color="#B2DEFF"/>
</linearGradient>
<linearGradient id="paint4_linear" x1="85.5362" y1="100.68" x2="110.327" y2="58.9607" gradientUnits="userSpaceOnUse">
<stop offset="0.000402018" stop-color="#E0F2FF"/>
<stop offset="0.9994" stop-color="#B2DEFF"/>
</linearGradient>
<linearGradient id="paint5_linear" x1="102.37" y1="110.683" x2="127.161" y2="68.9639" gradientUnits="userSpaceOnUse">
<stop offset="0.000402018" stop-color="#E0F2FF"/>
<stop offset="0.9994" stop-color="#B2DEFF"/>
</linearGradient>
<linearGradient id="paint6_linear" x1="174.294" y1="120.022" x2="79.2643" y2="162.034" gradientUnits="userSpaceOnUse">
<stop offset="0.000402018" stop-color="#DBF0FF"/>
<stop offset="1" stop-color="#E4F4FF"/>
</linearGradient>
<linearGradient id="paint7_linear" x1="213.33" y1="140.016" x2="196.619" y2="78.8112" gradientUnits="userSpaceOnUse">
<stop offset="0.000402018" stop-color="#E0F2FF"/>
<stop offset="0.9994" stop-color="#B2DEFF"/>
</linearGradient>
<linearGradient id="paint8_linear" x1="198.263" y1="46.3562" x2="238.433" y2="159.639" gradientUnits="userSpaceOnUse">
<stop offset="0.000402018" stop-color="#E0F2FF"/>
<stop offset="0.9994" stop-color="#B2DEFF"/>
</linearGradient>
<linearGradient id="paint9_linear" x1="41.2408" y1="103.188" x2="175.577" y2="103.313" gradientUnits="userSpaceOnUse">
<stop offset="0.000402018" stop-color="#D7EEFF"/>
<stop offset="0.9994" stop-color="#F1F9FF"/>
</linearGradient>
<radialGradient id="paint10_radial" cx="0" cy="0" r="1" gradientUnits="userSpaceOnUse" gradientTransform="translate(130.412 136.537) rotate(90) scale(5.98125 112.287)">
<stop stop-color="#212240"/>
<stop offset="1" stop-color="#23266A" stop-opacity="0"/>
</radialGradient>
<radialGradient id="paint11_radial" cx="0" cy="0" r="1" gradientUnits="userSpaceOnUse" gradientTransform="translate(130.696 135.973) rotate(90) scale(3.80625 81.4895)">
<stop stop-color="#212240"/>
<stop offset="1" stop-color="#23266A" stop-opacity="0"/>
</radialGradient>
<radialGradient id="paint12_radial" cx="0" cy="0" r="1" gradientUnits="userSpaceOnUse" gradientTransform="translate(130.994 134.86) rotate(90) scale(4.35 65.5)">
<stop stop-color="#212240" stop-opacity="0.23"/>
<stop offset="1" stop-color="#23266A" stop-opacity="0"/>
</radialGradient>
<radialGradient id="paint13_radial" cx="0" cy="0" r="1" gradientUnits="userSpaceOnUse" gradientTransform="translate(130.994 134.587) rotate(90) scale(2.99062 65.5)">
<stop stop-color="#212240" stop-opacity="0.51"/>
<stop offset="1" stop-color="#23266A" stop-opacity="0"/>
</radialGradient>
<radialGradient id="paint14_radial" cx="0" cy="0" r="1" gradientUnits="userSpaceOnUse" gradientTransform="translate(171.121 134.969) rotate(90) scale(1.63125 18.8312)">
<stop stop-color="#212240"/>
<stop offset="1" stop-color="#23266A" stop-opacity="0"/>
</radialGradient>
<radialGradient id="paint15_radial" cx="0" cy="0" r="1" gradientUnits="userSpaceOnUse" gradientTransform="translate(85.9666 134.861) rotate(90) scale(2.175 20.4683)">
<stop stop-color="#212240"/>
<stop offset="1" stop-color="#23266A" stop-opacity="0"/>
</radialGradient>
<radialGradient id="paint16_radial" cx="0" cy="0" r="1" gradientUnits="userSpaceOnUse" gradientTransform="translate(128.541 134.967) rotate(90) scale(1.63125 23.4703)">
<stop stop-color="#212240"/>
<stop offset="1" stop-color="#23266A" stop-opacity="0"/>
</radialGradient>
<radialGradient id="paint17_radial" cx="0" cy="0" r="1" gradientUnits="userSpaceOnUse" gradientTransform="translate(165.219 134.969) rotate(90) scale(1.0875 18.2602)">
<stop stop-color="#212240"/>
<stop offset="1" stop-color="#23266A" stop-opacity="0"/>
</radialGradient>
<radialGradient id="paint18_radial" cx="0" cy="0" r="1" gradientUnits="userSpaceOnUse" gradientTransform="translate(87.4356 134.969) rotate(90) scale(1.0875 18.2602)">
<stop stop-color="#212240"/>
<stop offset="1" stop-color="#23266A" stop-opacity="0"/>
</radialGradient>
<linearGradient id="paint19_linear" x1="141.317" y1="46.0247" x2="133.769" y2="119.21" gradientUnits="userSpaceOnUse">
<stop stop-color="white"/>
<stop offset="0.999" stop-color="#8FCEFF"/>
</linearGradient>
<linearGradient id="paint20_linear" x1="140.986" y1="50.4535" x2="147.039" y2="107.773" gradientUnits="userSpaceOnUse">
<stop stop-color="white"/>
<stop offset="0.999" stop-color="#8FCEFF"/>
</linearGradient>
<linearGradient id="paint21_linear" x1="104.715" y1="62.9424" x2="90.2779" y2="144.645" gradientUnits="userSpaceOnUse">
<stop stop-color="#B2DEFF"/>
<stop offset="0.3298" stop-color="#93C8FF"/>
<stop offset="0.7656" stop-color="#6FAFFF"/>
<stop offset="0.9985" stop-color="#61A5FF"/>
</linearGradient>
<linearGradient id="paint22_linear" x1="96.598" y1="65.6679" x2="88.4237" y2="121.272" gradientUnits="userSpaceOnUse">
<stop stop-color="#B2DEFF"/>
<stop offset="0.3298" stop-color="#93C8FF"/>
<stop offset="0.7656" stop-color="#6FAFFF"/>
<stop offset="0.9985" stop-color="#61A5FF"/>
</linearGradient>
<linearGradient id="paint23_linear" x1="65.8617" y1="122.411" x2="130.969" y2="146.511" gradientUnits="userSpaceOnUse">
<stop stop-color="#CFD4E7"/>
<stop offset="0.150577" stop-color="#DDE0EE"/>
<stop offset="0.479036" stop-color="#D9DDEC"/>
<stop offset="1" stop-color="#D5DAED"/>
</linearGradient>
<linearGradient id="paint24_linear" x1="186.402" y1="89.175" x2="160.439" y2="112.029" gradientUnits="userSpaceOnUse">
<stop offset="0.00173748" stop-color="#6771A3"/>
<stop offset="0.9998" stop-color="#8D98C9"/>
</linearGradient>
<linearGradient id="paint25_linear" x1="70.6144" y1="130.5" x2="122.871" y2="82.8945" gradientUnits="userSpaceOnUse">
<stop offset="0.132262" stop-color="#525481"/>
<stop offset="0.515935" stop-color="#393C63"/>
<stop offset="1" stop-color="#313356"/>
</linearGradient>
<linearGradient id="paint26_linear" x1="131" y1="130.5" x2="131" y2="110.045" gradientUnits="userSpaceOnUse">
<stop stop-color="#212240"/>
<stop offset="1" stop-color="#212240" stop-opacity="0"/>
</linearGradient>
<linearGradient id="paint27_linear" x1="-14.7586" y1="87.2645" x2="135.714" y2="121.713" gradientUnits="userSpaceOnUse">
<stop stop-color="#B1B4D8" stop-opacity="0.42"/>
<stop offset="0.5461" stop-color="#B5B8DC"/>
<stop offset="1" stop-color="#A6ABE4" stop-opacity="0"/>
</linearGradient>
<linearGradient id="paint28_linear" x1="170.291" y1="110.381" x2="170.298" y2="98.6906" gradientUnits="userSpaceOnUse">
<stop stop-color="#2F315C" stop-opacity="0"/>
<stop offset="0.9995" stop-color="#2F315C"/>
</linearGradient>
<radialGradient id="paint29_radial" cx="0" cy="0" r="1" gradientUnits="userSpaceOnUse" gradientTransform="translate(144.373 107.662) rotate(164.112) scale(3.97259 7.9194)">
<stop stop-color="white" stop-opacity="0.96"/>
<stop offset="1" stop-color="white" stop-opacity="0.64"/>
</radialGradient>
<linearGradient id="paint30_linear" x1="144.373" y1="110.109" x2="142.67" y2="107.794" gradientUnits="userSpaceOnUse">
<stop stop-color="#212240" stop-opacity="0.08"/>
<stop offset="1" stop-color="#212240" stop-opacity="0"/>
</linearGradient>
<linearGradient id="paint31_linear" x1="138.915" y1="111.197" x2="147.826" y2="117.751" gradientUnits="userSpaceOnUse">
<stop stop-color="white"/>
<stop offset="1" stop-color="white" stop-opacity="0"/>
</linearGradient>
<linearGradient id="paint32_linear" x1="201.958" y1="111.769" x2="192.573" y2="118.269" gradientUnits="userSpaceOnUse">
<stop stop-color="white"/>
<stop offset="1" stop-color="white" stop-opacity="0"/>
</linearGradient>
<linearGradient id="paint33_linear" x1="80.789" y1="104.414" x2="80.789" y2="135.306" gradientUnits="userSpaceOnUse">
<stop offset="0.000404094" stop-color="#212240"/>
<stop offset="0.2945" stop-color="#212240" stop-opacity="0"/>
</linearGradient>
<linearGradient id="paint34_linear" x1="125.547" y1="104.414" x2="125.547" y2="135.306" gradientUnits="userSpaceOnUse">
<stop offset="0.000404094" stop-color="#212240"/>
<stop offset="0.2945" stop-color="#212240" stop-opacity="0"/>
</linearGradient>
<linearGradient id="paint35_linear" x1="125.028" y1="124.928" x2="126.74" y2="109.057" gradientUnits="userSpaceOnUse">
<stop offset="0.000421262" stop-color="#E6E8F5"/>
<stop offset="1" stop-color="#7EB5F0"/>
</linearGradient>
<linearGradient id="paint36_linear" x1="80.2697" y1="124.928" x2="81.9818" y2="109.057" gradientUnits="userSpaceOnUse">
<stop offset="0.000421262" stop-color="#E6E8F5"/>
<stop offset="1" stop-color="#7EB5F0"/>
</linearGradient>
<linearGradient id="paint37_linear" x1="79.9879" y1="135.58" x2="78.7589" y2="119.69" gradientUnits="userSpaceOnUse">
<stop offset="0.000421262" stop-color="#E6E8F5"/>
<stop offset="1" stop-color="#7EB5F0"/>
</linearGradient>
<linearGradient id="paint38_linear" x1="124.746" y1="135.58" x2="123.517" y2="119.69" gradientUnits="userSpaceOnUse">
<stop offset="0.000421262" stop-color="#E6E8F5"/>
<stop offset="1" stop-color="#7EB5F0"/>
</linearGradient>
<clipPath id="clip0">
<path d="M0 0H262V145H0V0Z" fill="white"/>
</clipPath>
</defs>
</svg>
