<svg width="48" height="48" viewBox="0 0 48 48" fill="none" xmlns="http://www.w3.org/2000/svg">
<mask id="mask0" mask-type="alpha" maskUnits="userSpaceOnUse" x="0" y="0" width="48" height="48">
<rect width="48" height="48" fill="#C4C4C4"/>
</mask>
<g mask="url(#mask0)">
<path d="M40.5415 38.3999L16.8369 44.7507C13.6615 45.6368 10.4123 43.7168 9.52615 40.5414L3.24923 16.9107C2.36307 13.7353 4.28307 10.4861 7.45846 9.5999L31.1631 3.24914C34.3385 2.36298 37.5877 4.28298 38.4738 7.45837L44.8246 31.163C45.6369 34.3384 43.7169 37.5876 40.5415 38.3999Z" fill="#E1E4F4"/>
<path d="M27.9878 19.4957C27.9878 19.4957 26.5109 18.0926 26.5847 17.2803C26.6586 16.468 26.8801 16.0249 27.3232 16.0988C27.7663 16.1726 28.2832 16.8373 28.3571 17.1326C28.3571 17.428 28.0617 18.0926 28.3571 18.4619C28.5786 18.8311 28.874 19.4957 27.9878 19.4957Z" fill="#EF3F54"/>
<path d="M19.7908 26.8804C19.717 27.1019 19.2739 26.8804 18.9047 28.3573C18.3139 28.9481 18.1662 29.7604 18.1662 30.2034V33.305C18.1662 33.9696 18.3877 34.5604 18.8308 35.0773C19.0524 35.2988 19.9385 34.7819 20.2339 34.9296C22.6708 36.3327 25.3293 37.6619 25.3293 37.6619C26.7324 38.4742 27.4708 39.7296 29.0954 39.7296H30.4247L31.68 30.0558L19.7908 26.8804Z" fill="#57617F"/>
<path d="M18.757 29.9078L19.2001 29.6862C19.2001 28.5047 19.5693 27.5447 19.5693 27.5447L21.1201 26.1416L19.6432 26.8801C19.5693 27.1016 19.3478 26.8801 18.9786 28.357C18.3878 28.9478 18.2401 29.7601 18.2401 30.2031V31.237C18.2401 32.197 18.2401 32.7878 18.2401 33.3047C18.2401 33.3047 18.5355 33.3785 18.5355 33.157C18.5355 31.9016 18.757 29.9078 18.757 29.9078Z" fill="#8698BF"/>
<path d="M32.9353 13.2464C31.9753 13.7633 31.163 14.5018 30.4245 15.3141L25.9199 20.4833C25.6245 20.8525 25.3291 21.1479 24.9599 21.3695L20.603 24.7664C20.3076 24.9879 20.6768 25.6525 20.5291 25.9479C20.3076 26.391 19.5691 26.6864 19.5691 27.2033L19.4953 27.6464C19.4953 27.9418 20.6768 28.8279 21.0461 28.0895C21.3415 27.5725 22.6707 30.7479 23.1876 30.9695L26.4368 30.6741C27.2491 31.1171 25.9199 32.9633 26.8799 32.8156L30.5722 32.5202C31.2368 32.4464 31.9015 32.2248 32.4922 31.8556L36.9968 29.271L39.5815 30.0833L43.2738 25.431L39.0645 9.62791L32.9353 13.2464Z" fill="#BFC6F2"/>
<path d="M41.6491 19.5903L41.5014 19.6642L39.5076 25.3503C38.843 27.2703 37.5138 28.8211 35.8153 29.8549L32.7138 31.6273C31.9014 32.0703 31.0891 32.3657 30.203 32.4396C30.203 32.4396 28.6522 33.1042 27.323 34.2857L26.5107 37.1657C26.5107 38.5688 27.6922 39.7503 29.0953 39.7503H30.4245C31.8276 39.7503 33.1568 39.3811 34.4122 38.7165L44.9722 32.5873C44.9722 32.1442 44.8984 31.6273 44.7507 31.1842L41.6491 19.5903Z" fill="#8698BF"/>
<path d="M26.5107 20.2343L30.7937 15.2127C31.0153 14.9173 31.4583 14.9173 31.7537 15.1389C32.4922 15.7296 33.8214 16.9112 35.2983 17.7235C36.7753 18.6096 38.9168 19.4958 39.9507 19.865C40.3199 20.0127 40.4676 20.382 40.3199 20.7512L37.9568 26.7327C37.7353 27.2496 37.1445 27.4712 36.6276 27.3235C34.9291 26.6589 31.5322 25.2558 29.6122 24.1481C28.1353 23.262 27.1014 22.3019 26.5107 21.6373C26.1414 21.1943 26.1414 20.6773 26.5107 20.2343Z" fill="#FDFDFD"/>
<path d="M28.2833 36.1109C28.1356 36.4063 29.0217 36.997 29.0217 37.4401L27.0279 37.3663L28.1356 39.5816L25.3294 38.2524L26.5109 35.077L30.794 33.6001C30.794 33.6739 28.4309 35.8155 28.2833 36.1109Z" fill="#57617F"/>
<path d="M31.6063 33.2313C30.4986 33.6744 28.431 34.339 26.511 33.9698L25.1079 32.419L21.2679 32.1236L19.2002 29.6867C19.2002 29.6867 19.0525 28.579 19.2002 27.3975C19.2002 27.3975 18.314 30.2036 19.1263 30.7944C19.1263 31.3852 19.2002 31.9759 19.4956 32.1975C19.6433 32.2713 19.9386 32.419 20.3817 32.6405L21.0463 33.6005L24.3694 34.7082C24.4433 34.7082 24.4433 34.7821 24.5171 34.7821C25.4033 35.2252 26.1417 35.5944 26.3633 35.7421C26.6586 35.8898 26.7325 35.6682 26.7325 35.299C27.2494 35.299 28.1356 35.299 29.4648 35.0036C29.7602 34.9298 30.4986 34.4128 31.6802 33.379C31.9017 33.3052 31.754 33.1575 31.6063 33.2313Z" fill="#2B2E3A"/>
<path d="M40.0248 35.4669L39.951 32.7346L39.3602 31.9961H37.1448L35.5202 33.1038C34.1171 34.0638 33.1571 35.6146 33.1571 37.4607L32.7141 38.8638L32.8617 39.3807C32.8617 39.3807 33.3787 39.233 33.8956 38.9376L33.9694 39.0115L35.5202 39.8072L35.7417 39.0115C36.7017 38.4207 37.5141 37.6084 37.9571 36.5746C39.0648 35.9838 40.0248 35.4669 40.0248 35.4669Z" fill="#2B2E3A"/>
<path d="M32.8616 39.3605C32.8616 39.3605 34.117 33.3051 37.5878 32.2713C41.0586 31.2374 39.5078 35.7421 39.5078 35.7421L40.5416 35.1513C40.5416 35.1513 41.2063 30.3513 37.5878 31.5328C32.9355 33.0098 31.5324 39.6559 31.5324 39.6559C31.9755 39.8036 32.4924 39.5821 32.8616 39.3605Z" fill="#BFC6F2"/>
<path d="M19.0522 33.0835L26.5107 37.3666C27.0276 38.5481 27.4707 39.2866 27.4707 39.2866C26.8799 39.4343 26.2153 38.622 25.6984 38.4743C25.1815 38.3266 19.4953 36.0373 19.4953 36.0373C18.9784 35.6681 18.5353 34.9297 18.3876 34.6343C18.4614 34.1173 19.0522 33.0835 19.0522 33.0835Z" fill="#2B2E3A"/>
<path d="M26.2892 21.3418C25.8461 21.9326 25.4769 22.5233 25.0338 23.1141C24.6646 23.7049 24.2215 24.2956 23.8523 24.8864C23.4092 25.4772 22.9661 26.068 22.523 26.5849C22.3753 26.7326 22.3015 26.8064 22.08 27.028C21.9323 27.1756 21.6369 27.2495 21.4153 27.1756C21.1938 27.1018 21.0461 27.028 20.8984 26.9541C20.8984 26.9541 20.8246 26.9541 20.8246 27.028C20.8246 27.1018 20.8246 27.1756 20.7507 27.3233C20.7507 27.2495 20.6769 27.1756 20.6769 27.028C20.6769 26.9541 20.6769 26.9541 20.6769 26.8803C20.6769 26.8064 20.8246 26.7326 20.8984 26.7326C21.12 26.7326 21.2676 26.8064 21.4153 26.8064C21.563 26.8064 21.6369 26.7326 21.7107 26.6587C21.7846 26.5849 21.9323 26.3633 22.0061 26.2156C22.3753 25.6249 22.8184 25.0341 23.1876 24.3695C23.6307 23.7787 24.0738 23.188 24.5169 22.671C25.1076 22.228 25.6246 21.711 26.2892 21.3418Z" fill="#8698BF"/>
<path d="M35.9631 27.3232C35.0031 28.0617 33.8216 28.6525 32.64 29.0956C32.0493 29.3171 31.4585 29.5386 30.8677 29.6863C30.277 29.834 29.6124 29.9817 29.1693 30.2032L29.2431 30.1294C28.9477 30.4986 28.7262 30.8679 28.4308 31.1632L28.357 31.2371H28.2831C27.84 31.1632 27.397 31.0894 27.0277 30.9417C27.4708 30.8679 27.9139 30.8679 28.357 30.8679L28.2093 30.9417C28.4308 30.5725 28.6524 30.1294 28.8739 29.7602V29.6863L28.9477 29.6125C29.5385 29.2432 30.1293 29.0955 30.72 28.874C31.3108 28.6525 31.9016 28.5048 32.4924 28.3571L35.9631 27.3232Z" fill="#8698BF"/>
<path d="M40.9109 25.6986C40.7632 26.1417 41.2802 26.4371 41.6494 26.2155L43.274 25.1817L42.1663 21.4155C42.0925 21.5632 42.0186 21.7109 42.0186 21.8586L40.9109 25.6986Z" fill="#F97A7A"/>
<path d="M28.8739 35.9628C28.8739 35.9628 29.2432 36.849 29.9816 36.9228C30.7201 36.9967 30.8678 35.3721 30.8678 35.3721L28.8739 35.9628Z" fill="#57617F"/>
<path d="M19.3479 32.8615C18.4617 32.1969 17.6494 32.7877 17.4279 33.0831L16.6156 31.3846L16.6894 29.6861C16.5417 29.5385 17.0586 28.3569 16.9109 28.2092C16.4679 27.7661 16.3202 26.6585 16.3202 26.6585C15.3602 25.92 14.3263 25.2554 13.1448 24.4431C13.1448 24.4431 10.9294 19.8646 9.74787 18.6092C8.56633 17.3538 4.80017 15.0646 3.10171 14.0308C2.95402 14.9908 2.95402 15.9508 3.2494 16.9108L8.78787 37.5138L20.234 34.8554L19.3479 32.8615Z" fill="#FFD385"/>
<path d="M20.1602 36.7018V34.8556L18.831 34.191L19.3479 32.8618C18.9787 32.7879 18.9049 32.7879 18.9049 32.4187C18.3879 31.7541 17.4279 31.6802 17.3541 31.3849C17.1325 30.6464 17.1325 28.5049 16.911 28.2095L15.6556 29.8341L16.6895 31.3849C16.6895 31.3849 16.6156 31.8279 12.8495 33.9695C11.7418 34.6341 9.89562 35.5202 8.4187 36.1849L9.60024 40.5418C9.89562 41.7233 10.5602 42.6833 11.3725 43.4218L18.7572 39.1387C19.6433 38.6218 20.1602 37.7356 20.1602 36.7018Z" fill="#FFB75E"/>
<path d="M11.0033 39.0646L15.1387 36.7015C15.3602 36.5538 15.7294 36.7015 15.7294 36.9969V39.4338C15.7294 39.6553 15.5818 39.8769 15.3602 40.0246L11.2248 42.3877C11.0033 42.5353 10.6341 42.3876 10.6341 42.0923V39.6553C10.6341 39.36 10.7818 39.1384 11.0033 39.0646Z" fill="#57617F"/>
<path d="M18.0926 36.5539C18.7572 35.5201 20.1602 34.8555 20.1602 34.8555V36.1847C20.1602 36.7755 19.8649 37.2924 19.3479 37.5878L17.871 38.4001C17.5756 38.5478 17.2803 38.3262 17.3541 37.957C17.5756 37.5878 17.7972 36.997 18.0926 36.5539Z" fill="#57617F"/>
<path d="M18.0926 36.5539C18.2403 36.2585 18.4618 36.037 18.7572 35.8154L18.3879 36.7754L18.7572 37.2924L19.4956 35.8893L19.5695 36.4062L20.1602 36.1847C20.1602 36.7754 19.8649 37.2924 19.3479 37.5877L17.871 38.4C17.5756 38.5477 17.2803 38.3262 17.3541 37.957C17.5756 37.5877 17.7972 36.997 18.0926 36.5539Z" fill="#F97A7A"/>
<path d="M10.3386 20.5292C9.96939 19.9385 9.23093 19.7908 8.64016 20.0862L4.65247 22.3754L6.27708 28.3569L12.554 24.8123C11.9632 23.4092 11.0771 21.7108 10.3386 20.5292Z" fill="#F97A7A"/>
<path d="M17.723 33.3047C17.8707 33.157 18.7569 33.2309 18.9046 32.3447L8.86148 38.0309L9.30456 39.5816L18.1661 34.4863L17.723 33.3047Z" fill="#FFD385"/>
<path d="M18.3878 32.5661L18.9047 32.4185L19.3478 32.8615L18.9785 33.4523L16.0247 34.56L17.2801 33.0092L18.3878 32.5661Z" fill="#57617F"/>
<path d="M18.4618 33.6L16.8372 33.8954L17.5756 33.3785L17.2802 33.0093L8.4187 36.2585L8.64024 37.2185L15.8772 34.56L18.4618 33.6Z" fill="#EF3F54"/>
<path d="M9.52637 35.8893L9.82175 36.8493L15.8771 34.5601L16.4679 33.3047L9.52637 35.8893Z" fill="#57617F"/>
<path d="M38.0309 33.3784C37.7355 33.3784 37.4401 33.4523 37.1448 33.6C35.594 34.4861 34.4863 36.2584 34.4863 38.1784C34.4863 39.1384 35.2986 39.9507 36.2586 39.9507C36.554 39.9507 36.9232 39.8769 37.1448 39.7292C38.6955 38.843 39.8032 37.0707 39.8032 35.1507C39.8032 34.1907 38.9909 33.3784 38.0309 33.3784Z" fill="#57617F"/>
<path d="M44.0862 25.5507C43.6431 25.3291 42.4616 24.8122 42.0185 24.8861C41.7231 24.8861 41.4278 25.2553 41.2801 25.6984C41.0585 25.7722 40.6893 25.9199 40.6893 26.0676C40.6893 26.2891 41.1324 26.4368 41.3539 26.4368C41.4278 26.5845 41.5755 26.6584 41.7231 26.7322C41.9447 26.8061 43.717 27.1014 44.1601 26.6584C44.677 26.1414 44.5293 25.7722 44.0862 25.5507Z" fill="#EF3F54"/>
<path d="M11.6679 39.6558H16.394C16.6894 39.6558 16.8371 39.9511 16.6894 40.2465L15.5079 42.3142C15.3602 42.5358 15.1386 42.6835 14.9171 42.6835H10.1909C9.89556 42.6835 9.74786 42.3881 9.89556 42.0927L11.0771 40.025C11.2248 39.8035 11.4463 39.6558 11.6679 39.6558Z" fill="#FDFDFD"/>
</g>
</svg>
